<?xml version="1.0" encoding="utf-8"?>
<!-- Generator: Adobe Illustrator 25.0.1, SVG Export Plug-In . SVG Version: 6.00 Build 0)  -->
<svg version="1.1" id="Warstwa_1" xmlns="http://www.w3.org/2000/svg" xmlns:xlink="http://www.w3.org/1999/xlink" x="0px" y="0px"
	 viewBox="0 0 74.7 54.5" style="enable-background:new 0 0 74.7 54.5;" xml:space="preserve">
<path id="blood-donation" d="M70.6,29l-9.8-11.8c-0.4-0.5-1.1-0.6-1.6-0.2c-0.1,0-0.1,0.1-0.2,0.2l-4.9,5.9
	c-0.7-3.2-2.2-6.2-4.3-8.7l-11.5-14c-0.4-0.5-1.1-0.6-1.6-0.2c-0.1,0-0.1,0.1-0.2,0.2l-11.5,14c-2.1,2.5-3.6,5.5-4.3,8.7l-4.9-5.9
	c-0.4-0.5-1.1-0.6-1.6-0.2c-0.1,0-0.1,0.1-0.2,0.2L4.1,29c-2.5,3-4,6.8-4.1,10.7c-0.1,3.9,1.4,7.7,4.2,10.5c5.9,5.8,15.4,5.8,21.2,0
	c2.2-2.1,3.6-4.9,4-7.9c5,2.5,10.9,2.5,15.9,0c0.5,3,1.9,5.8,4,7.9c5.9,5.8,15.4,5.8,21.2,0c2.8-2.8,4.3-6.5,4.2-10.5
	C74.6,35.8,73.1,32,70.6,29L70.6,29z M23.8,48.5c-5,4.9-13,4.9-17.9,0c-4.7-4.7-4.7-12.3,0.1-18l8.9-10.7l5.3,6.5c0,0.2,0,0.4,0,0.7
	c-0.1,4.6,1.6,9,4.9,12.2c0.7,0.7,1.4,1.3,2.2,1.9C27,43.8,25.8,46.5,23.8,48.5L23.8,48.5z M26.6,37.4C21,31.8,21,22.7,26.7,15.9
	L37.4,3L48,15.9c5.7,6.8,5.7,15.9,0.1,21.5C42.2,43.3,32.6,43.3,26.6,37.4z M68.9,48.5c-5,4.9-13,4.9-17.9,0c-2-2-3.3-4.7-3.5-7.6
	c0.8-0.6,1.5-1.2,2.2-1.9c3.2-3.2,5-7.6,4.9-12.2c0-0.2,0-0.4,0-0.7l5.3-6.5l8.9,10.7C73.6,36.2,73.6,43.8,68.9,48.5L68.9,48.5z
	 M66.2,32.7c1.6,1.9,2.6,4.2,2.8,6.6c0.2,2.5-0.7,5.1-2.5,6.8c-1.7,1.7-4.1,2.7-6.6,2.7h0c-0.6,0-1.2-0.5-1.2-1.2
	c0-0.6,0.5-1.2,1.2-1.2h0c1.9,0,3.6-0.7,4.9-2c3-3,1.9-7.5-0.4-10.3c-0.4-0.5-0.3-1.2,0.2-1.6C65.1,32.1,65.8,32.2,66.2,32.7
	L66.2,32.7L66.2,32.7z M16,47.7c0,0.6-0.5,1.2-1.2,1.2c0,0,0,0,0,0h0c-2.5,0-4.8-1-6.6-2.7c-1.8-1.8-2.7-4.3-2.5-6.8
	c0.2-2.4,1.2-4.8,2.8-6.6c0.4-0.5,1.1-0.6,1.6-0.2c0.5,0.4,0.6,1.1,0.2,1.6C8,37,6.8,41.4,9.9,44.5c1.3,1.3,3.1,2,4.9,2h0
	C15.5,46.5,16,47,16,47.7z M37.4,16.3c-5.5,0-10,4.5-10,10s4.5,10,10,10c5.5,0,10-4.5,10-10c0-2.7-1.1-5.2-2.9-7.1
	C42.6,17.3,40,16.3,37.4,16.3L37.4,16.3z M42.8,31.7c-3,3-7.9,3-10.9,0c-3-3-3-7.9,0-10.9s7.9-3,10.9,0c0,0,0,0,0,0
	C45.8,23.8,45.8,28.7,42.8,31.7C42.8,31.7,42.8,31.7,42.8,31.7L42.8,31.7z M42.7,26.3c0,0.6-0.5,1.2-1.2,1.2h-3v3
	c0,0.6-0.5,1.2-1.2,1.2s-1.2-0.5-1.2-1.2v-3h-3c-0.6,0-1.2-0.5-1.2-1.2c0-0.6,0.5-1.2,1.2-1.2h3v-3c0-0.6,0.5-1.2,1.2-1.2
	s1.2,0.5,1.2,1.2v3h3C42.1,25.1,42.7,25.7,42.7,26.3L42.7,26.3z"/>
</svg>
