<?xml version="1.0" encoding="utf-8"?>
<!-- Generator: Adobe Illustrator 25.0.1, SVG Export Plug-In . SVG Version: 6.00 Build 0)  -->
<svg version="1.1" id="Group_48" xmlns="http://www.w3.org/2000/svg" xmlns:xlink="http://www.w3.org/1999/xlink" x="0px" y="0px"
	 viewBox="0 0 60 60" style="enable-background:new 0 0 60 60;" xml:space="preserve">
<path id="microscope" d="M14.9,38.3c1.7,0,3.1,1.4,3.1,3.1c0,1.7-1.4,3.1-3.1,3.1s-3.1-1.4-3.1-3.1l0,0
	C11.9,39.7,13.3,38.4,14.9,38.3z M14.9,42.6c0.7,0,1.2-0.5,1.2-1.2s-0.5-1.2-1.2-1.2c-0.7,0-1.2,0.5-1.2,1.2S14.3,42.6,14.9,42.6
	C14.9,42.6,14.9,42.6,14.9,42.6z M0,29.1c0-8.6,6.6-15.8,15.1-16.5L14,4.3c-0.1-0.4,0.2-0.8,0.5-1l6.9-3.2c0.4-0.2,0.8-0.1,1.1,0.2
	l6.1,6.6c0.1,0.1,0.2,0.2,0.2,0.3l8.4,18c0.2,0.5,0,1-0.5,1.2c0,0,0,0,0,0l-1.6,0.7l0.2,0.4c1.1,2.2,0.2,4.9-2,6c0,0-0.1,0-0.1,0
	L32.8,34c-0.6,0.3-1.2,0.4-1.9,0.4c-1.7,0-3.3-1-4.1-2.5l-0.3-0.6l-1.6,0.7c-0.5,0.2-1,0-1.2-0.5c0,0,0,0,0,0l-5.4-11.5
	c-5-0.9-9.8,2.4-10.8,7.4c-0.6,3.3,0.6,6.6,3.2,8.8c2.8-2.3,6.9-2,9.3,0.8c0.7,0.8,1.1,1.8,1.4,2.8h26.4c0.5,0,0.9,0.4,0.9,0.9v5.2
	c0,0.5-0.4,0.9-0.9,0.9H21.5v6.1h5.9v-2.7c0-0.5,0.4-0.9,0.9-0.9H40c0.5,0,0.9,0.4,0.9,0.9v2.7h4.2c1.9,0,3.5,1.6,3.5,3.5
	c0,1.9-1.6,3.5-3.5,3.5H3.5c-1.9,0-3.6-1.5-3.6-3.5c0-1.9,1.5-3.6,3.5-3.6c0,0,0.1,0,0.1,0h4.8v-9.4C3.2,40.6,0,35.1,0,29.1z
	 M21.7,2.1L16,4.7l0.9,7.1l9.6-4.5L21.7,2.1z M28.5,31.1c0.6,1.3,2.2,1.8,3.5,1.2l0.6-0.3c1.3-0.6,1.9-2.2,1.3-3.5c0,0,0,0,0-0.1
	L33.6,28l-5.4,2.5L28.5,31.1z M25,30l10.2-4.8L27.6,8.9l-10.2,4.8L25,30z M5.5,29.1c0-6.1,5-11.1,11.1-11.1c0.3,0,0.5,0,0.8,0
	l-1.7-3.6C7.5,14.9,1.4,21.9,1.9,30.1c0.3,4.5,2.7,8.7,6.4,11.3v-0.1c0-1.3,0.4-2.6,1.1-3.7C7,35.5,5.5,32.4,5.5,29.1L5.5,29.1z
	 M46.8,45v-3.3H21.5V45L46.8,45z M39.1,51.2h-9.8v1.7h9.8V51.2z M1.9,56.5c0,0.9,0.7,1.7,1.7,1.7h41.7c0.9,0,1.7-0.7,1.7-1.7
	c0-0.9-0.7-1.7-1.7-1.7H3.5C2.6,54.8,1.9,55.6,1.9,56.5z M19.7,52.9V41.3c0-2.6-2.1-4.7-4.7-4.7s-4.7,2.1-4.7,4.7c0,0,0,0,0,0v11.7
	H19.7z M43.7,33c-0.5,0-0.9-0.5-0.9-1c0-0.5,0.4-0.9,0.9-0.9h1.1c0.1-0.7,0.4-1.3,0.8-1.9l-0.8-0.8c-0.3-0.4-0.3-1,0.1-1.3
	c0.4-0.3,0.9-0.3,1.2,0l0.8,0.8c0.6-0.4,1.2-0.6,1.9-0.8v-1.1c0-0.5,0.5-0.9,1-0.9c0.5,0,0.9,0.4,0.9,0.9v1.1
	c0.7,0.1,1.3,0.4,1.9,0.8l0.8-0.8c0.4-0.4,1-0.4,1.3,0s0.4,1,0,1.3l-0.8,0.8c0.4,0.6,0.6,1.2,0.8,1.9h1.1c0.5,0,0.9,0.4,0.9,0.9
	c0,0.5-0.4,0.9-0.9,0.9h-1.1c-0.1,0.7-0.4,1.3-0.8,1.9l0.8,0.8c0.4,0.4,0.3,1,0,1.3c-0.4,0.3-0.9,0.3-1.3,0l-0.8-0.8
	c-0.6,0.4-1.2,0.6-1.9,0.8v1.1c0,0.5-0.4,0.9-0.9,0.9s-0.9-0.4-0.9-0.9V37c-0.7-0.1-1.3-0.4-1.9-0.8L46.1,37c-0.4,0.4-1,0.3-1.3,0
	c-0.3-0.4-0.3-0.9,0-1.3l0.8-0.8c-0.4-0.6-0.6-1.2-0.8-1.9H43.7z M49.7,35.2c1.7,0,3.1-1.4,3.1-3.1S51.4,29,49.7,29
	c-1.7,0-3.1,1.4-3.1,3.1C46.6,33.8,48,35.2,49.7,35.2z M37,19.2c-0.5,0-0.9-0.5-0.9-1c0-0.5,0.4-0.9,0.9-0.9h0.9
	c0.1-0.6,0.3-1.1,0.7-1.6l-0.6-0.6c-0.4-0.4-0.4-1,0-1.3s1-0.4,1.3,0l0.6,0.6c0.5-0.3,1-0.5,1.6-0.7v-0.9c0-0.5,0.4-1,0.9-1
	c0.5,0,1,0.4,1,0.9c0,0,0,0,0,0.1v0.9c0.6,0.1,1.1,0.3,1.6,0.7l0.6-0.6c0.4-0.4,1-0.4,1.3,0s0.4,1,0,1.3l0,0l-0.6,0.6
	c0.3,0.5,0.5,1,0.7,1.6h0.9c0.5,0,0.9,0.5,0.9,1c0,0.5-0.4,0.9-0.9,0.9h-0.9c-0.1,0.6-0.3,1.1-0.7,1.6l0.6,0.6c0.4,0.4,0.4,1,0,1.3
	s-1,0.4-1.3,0l0,0l-0.6-0.6c-0.5,0.3-1,0.5-1.6,0.7v0.9c0,0.5-0.4,1-0.9,1c-0.5,0-1-0.4-1-0.9c0,0,0,0,0-0.1v-0.9
	c-0.6-0.1-1.1-0.3-1.6-0.7l-0.6,0.6c-0.4,0.4-1,0.4-1.3,0s-0.4-1,0-1.3l0,0l0.6-0.6c-0.3-0.5-0.5-1-0.7-1.6L37,19.2z M42.4,21
	c1.5,0,2.7-1.2,2.7-2.7s-1.2-2.7-2.7-2.7c-1.5,0-2.7,1.2-2.7,2.7C39.6,19.7,40.9,21,42.4,21L42.4,21z M59.1,7.4h-0.9
	c-0.1,0.6-0.3,1.1-0.7,1.6l0.6,0.6c0.4,0.4,0.4,1,0,1.3s-1,0.4-1.3,0l-0.6-0.6c-0.5,0.3-1,0.5-1.6,0.7v0.9c0,0.5-0.4,0.9-0.9,0.9
	s-0.9-0.4-0.9-0.9v-0.9c-0.6-0.1-1.1-0.3-1.6-0.7l-0.6,0.6c-0.4,0.4-1,0.4-1.3,0s-0.4-1,0-1.3l0.6-0.6c-0.3-0.5-0.5-1-0.7-1.6h-0.9
	c-0.5,0-0.9-0.5-0.9-1c0-0.5,0.4-0.9,0.9-0.9h0.9c0.1-0.6,0.3-1.1,0.7-1.6l-0.6-0.6c-0.4-0.4-0.4-1,0-1.3s1-0.4,1.3,0l0.6,0.6
	c0.5-0.3,1-0.5,1.6-0.7V1c0-0.5,0.4-0.9,0.9-0.9s0.9,0.4,0.9,0.9v0.9c0.6,0.1,1.1,0.3,1.6,0.7l0.6-0.6c0.4-0.4,1-0.4,1.3,0
	s0.4,1,0,1.3l0,0l-0.6,0.6c0.3,0.5,0.5,1,0.7,1.6h0.9c0.5,0,0.9,0.5,0.9,1C60,7,59.6,7.4,59.1,7.4L59.1,7.4z M53.7,3.7
	c-1.5,0-2.7,1.2-2.7,2.7s1.2,2.7,2.7,2.7s2.7-1.2,2.7-2.7C56.4,4.9,55.2,3.7,53.7,3.7z"/>
</svg>
