<?xml version="1.0" encoding="utf-8"?>
<!-- Generator: Adobe Illustrator 25.0.1, SVG Export Plug-In . SVG Version: 6.00 Build 0)  -->
<svg version="1.1" id="Warstwa_1" xmlns="http://www.w3.org/2000/svg" xmlns:xlink="http://www.w3.org/1999/xlink" x="0px" y="0px"
	 viewBox="0 0 60 68.8" style="enable-background:new 0 0 60 68.8;" xml:space="preserve">
<path id="medical-insurance" d="M59.5,17.9L30.6,0.2c-0.3-0.2-0.8-0.2-1.1,0L0.5,17.9C0.2,18.1,0,18.4,0,18.8c0,9.7,3,19.7,8.7,29
	c5.1,8.6,12.2,15.7,20.8,20.9c0.3,0.2,0.7,0.2,1.1,0c8.5-5.1,15.7-12.3,20.8-20.9c5.7-9.3,8.7-19.4,8.7-29
	C60,18.4,59.8,18.1,59.5,17.9z M30,66.5C14,57,2.4,37.4,2.2,19.4L30,2.3l27.8,17.1C57.6,37.4,46,57,30,66.5z M12.8,31.7
	c0,9.5,7.7,17.2,17.2,17.2s17.2-7.7,17.2-17.2S39.5,14.5,30,14.5C20.5,14.5,12.8,22.2,12.8,31.7z M45.1,31.7
	c0,8.3-6.7,15.1-15.1,15.1S14.9,40,14.9,31.7c0-8.3,6.7-15.1,15.1-15.1C38.3,16.6,45.1,23.4,45.1,31.7L45.1,31.7z M25.1,21.6v5.2
	h-5.3c-0.6,0-1.1,0.5-1.1,1.1c0,0,0,0,0,0v7.6c0,0.6,0.5,1.1,1.1,1.1l0,0h5.2v5.2c0,0.6,0.5,1.1,1.1,1.1l0,0h7.6
	c0.6,0,1.1-0.5,1.1-1.1v-5.2h5.2c0.6,0,1.1-0.5,1.1-1.1v-7.6c0-0.6-0.5-1.1-1.1-1.1h-5.2v-5.2c0-0.6-0.5-1.1-1.1-1.1h-7.6
	C25.6,20.5,25.1,21,25.1,21.6z M27.3,27.9v-5.2h5.4v5.2c0,0.6,0.5,1.1,1.1,1.1H39v5.4h-5.2c-0.6,0-1.1,0.5-1.1,1.1v5.2h-5.4v-5.2
	c0-0.6-0.5-1.1-1.1-1.1l0,0H21V29h5.2C26.8,29,27.3,28.5,27.3,27.9z"/>
</svg>
